<?xml version='1.0' encoding='utf-8'?>
<svg xmlns="http://www.w3.org/2000/svg" viewBox="0 0 2160 3840"> <defs> <style>.cls-1 { fill: none; stroke: #000; stroke-linecap: round; stroke-linejoin: round; stroke-width: 8px; fill-rule: evenodd; }</style> </defs> <path class="cls-1" d="m1629.3 3214.5s293.88 69.28 121.68-337.96 16.78-445.55 74.36-588.05 34.46-212.84-60.84-337.96-26.88-273.91 60.84-446.1 32.62-370.4-94.64-405.55-68.58-746.63-513.76-561.01 156.54 251.88 169 432.59-79.58 389.42-108.16 432.58 88.78-56.41 13.52 87.87-118.63 178.62-128.44 121.67-101.33 370.49-446.16 229.81c-278-113.43 98.183-208.7 18.309-109.36s-101.46-143.96-12-119 165.3 57.68 193 5c24.46-46.52-161.07-39.98-260.15-114.6-75.039-56.52-62.4 82.52 65.148 104.6 78.4 13.57 174.56 70.98 198.49-3.21 20.227-62.71-161.32-165.48-253.49-149.79-143.39 24.42 181.47 152.1 134 29-38.691-100.32 42.515-28.59 82-92 33.617-53.99-30.729-182.28 78.051-253.6s219.32-85.28 350.95 1.6c58.88 38.87 13.28 62.5-30 40-34.05-17.7-87.2-38.92-143-48-44.3-7.21-277.98 60.53 30 154 301.28 91.44-29.67-107-88-107-46.81 0 120.41 98 207 98 91.88 0 167.4 174.21 153.01 287.23-19.69 154.58-116.98 212.07 40.56 310.92s36.15 349.13 20.28 459.63-95.95 621.48-40.56 926-550.31 165.31-473.2-6.76c74.79-166.88 40.94-126.71 126.91-343.02 92.28-232.2-187.46 152.86-194.51 349.78s-605.4 9.25-500.24-128.42 260.46-1063.7 554.75-1182.4c0 0 3.564-32.03 13.091-122.16 3.167-29.97-13.52 121.66-13.52 121.66s278.38-106.24 392.08 128.43-391.02-99.02-157.65-202.93 30.24-93.6 42.73-148.55 12.36-134.33-54.08-108.14-96.76 111.17-33.8 128.42-93.73 116.06 44.15 128.27"/> <path class="cls-1" d="m131 2837s-205.19-263.26 37-502-229.68-360.74 87-613-113.13-470.58 270-673-242.1-178.1 195-421c341.95-190.02 369.37-119.93 364.97-85.3"/> </svg>